# xmcd
#
# Track frame offsets: 
#        150
#        13827
#        28488
#        44675
#
# Disc length: 787 seconds
#
# Revision: 0
# Processed by: cddbd v1.5.2PL0 Copyright (c) Steve Scherf et al.
# Submitted via: ExactAudioCopy v0.99pb4
#
DISCID=35031104
DTITLE=Marcus Bonfanti - Knock Me Down E.P.
DYEAR=2008
DGENRE=Blues
TTITLE0=Knock Me Down
TTITLE1=Teach The Preacher
TTITLE2=Now I'm Gone
TTITLE3=Judgement Day
EXTD=
EXTT0=
EXTT1=
EXTT2=
EXTT3=
PLAYORDER=
